<svg width="400" height="245" viewBox="0 0 400 245" fill="none" xmlns="http://www.w3.org/2000/svg">
<path d="M347.743 180.921C347.743 262.517 281.596 228.41 200 228.41C118.404 228.41 52.2575 262.517 52.2575 180.921C52.2575 99.3252 118.404 33.1786 200 33.1786C281.596 33.1786 347.743 99.3252 347.743 180.921Z" fill="#E0921C"/>
<path d="M180.477 5.03719C168.763 5.03719 160.954 13.2246 160.954 24.531V133.494C160.954 137.912 157.372 141.494 152.954 141.494H129.908C125.489 141.494 121.908 137.912 121.908 133.494V55.6408C121.908 50.0354 116.394 46.3855 111.497 49.113C88.8279 61.7391 36.8062 99.7323 34.1585 183.531C34.0368 187.382 31.2925 190.799 27.8439 192.518C20.0455 196.404 7.40544 206.42 5.12662 230.965C4.71818 235.365 8.35055 238.963 12.7688 238.963H386.862C391.422 238.963 395.104 235.133 394.493 230.614C391.242 206.571 379.39 196.588 372.018 192.637C368.657 190.835 365.963 187.429 365.844 183.617C363.229 99.7582 311.18 61.7434 288.503 49.113C283.606 46.3855 278.092 50.0354 278.092 55.6408V133.494C278.092 137.912 274.511 141.494 270.092 141.494H247.046C242.628 141.494 239.046 137.912 239.046 133.494V24.531C239.046 13.2246 231.627 5.03719 219.523 5.03719H180.477Z" fill="#FFB800"/>
</svg>
