<svg width="318" height="318" viewBox="0 0 318 318" fill="none" xmlns="http://www.w3.org/2000/svg">
<path d="M231.635 191.197C231.635 230.986 199.38 214.354 159.591 214.354C119.803 214.354 87.5479 230.986 87.5479 191.197C87.5479 151.409 119.803 119.154 159.591 119.154C199.38 119.154 231.635 151.409 231.635 191.197Z" fill="#E0921C"/>
<path d="M150.071 105.431C144.359 105.431 140.551 109.424 140.551 114.937V163.971C140.551 168.39 136.97 171.971 132.551 171.971H129.511C125.093 171.971 121.511 168.39 121.511 163.971V136.059C121.511 130.453 116.009 126.904 111.369 130.05C99.4732 138.118 81.0837 155.829 78.8878 189.07C78.6339 192.915 75.8104 196.308 72.7612 198.663C69.8381 200.921 66.6313 204.839 65.1811 211.544C64.247 215.862 67.9728 219.5 72.3911 219.5H246.423C250.983 219.5 254.751 215.638 253.621 211.221C251.986 204.828 248.979 201.022 246.257 198.783C243.311 196.361 240.549 192.963 240.301 189.157C238.131 155.859 219.72 138.125 207.813 130.05C203.174 126.904 197.672 130.453 197.672 136.059V163.971C197.672 168.39 194.09 171.971 189.672 171.971H186.631C182.213 171.971 178.631 168.39 178.631 163.971V114.937C178.631 109.424 175.014 105.431 169.111 105.431H150.071Z" fill="#FFB800"/>
<path d="M20.5005 198.3L20.6005 189C20.6005 184.733 20.5338 181.8 20.4005 180.2C20.4005 177 18.4005 175.4 14.4005 175.4H13.8005C11.5338 175.4 10.1005 174.367 9.50049 172.3C9.16716 171.233 9.00049 169.867 9.00049 168.2C9.00049 166.533 9.13382 165.167 9.40049 164.1C9.73382 163.033 10.1672 162.3 10.7005 161.9C11.5672 161.3 12.5672 161 13.7005 161H14.1005C18.3005 161 20.4005 159.367 20.4005 156.1C20.4672 143.9 20.5005 137.1 20.5005 135.7C20.5005 130.567 22.0338 126.367 25.1005 123.1C28.2338 119.833 32.1338 118.2 36.8005 118.2C39.0005 118.2 40.6005 118.467 41.6005 119C42.6005 119.467 43.2672 120.233 43.6005 121.3C43.9338 122.3 44.1005 123.633 44.1005 125.3C44.1005 126.967 43.9338 128.333 43.6005 129.4C43.2672 130.4 42.7005 131.1 41.9005 131.5C40.6338 132.233 38.9672 132.6 36.9005 132.6C35.5672 132.6 34.9005 133.9 34.9005 136.5V153.5C34.9005 156.433 34.4005 159.133 33.4005 161.6C32.4005 164.067 31.4338 165.8 30.5005 166.8L29.0005 168.3C29.4005 168.5 30.0005 169.1 30.8005 170.1C31.6672 171.1 32.3672 172.167 32.9005 173.3C34.2338 176.3 34.8672 180.5 34.8005 185.9C34.8005 191.3 34.8005 195.6 34.8005 198.8V201.2C34.8005 202 34.9672 202.633 35.3005 203.1C35.7672 203.567 36.4338 203.8 37.3005 203.8C38.2338 203.8 39.0005 203.833 39.6005 203.9C40.2672 204.033 41.0338 204.3 41.9005 204.7C43.3672 205.433 44.1005 207.5 44.1005 210.9C44.1005 214.367 43.3338 216.467 41.8005 217.2C40.6005 217.8 38.9672 218.1 36.9005 218.1C32.2338 218.1 28.3338 216.433 25.2005 213.1C22.0672 209.767 20.5005 205.467 20.5005 200.2V198.3Z" fill="#E0921C"/>
<path d="M298.933 189.65L299.023 198.02V199.73C299.023 204.47 297.613 208.34 294.793 211.34C291.973 214.34 288.463 215.84 284.263 215.84C280.903 215.84 278.923 214.94 278.323 213.14C278.023 212.18 277.873 210.92 277.873 209.36C277.873 207.8 278.023 206.57 278.323 205.67C278.623 204.77 279.133 204.14 279.853 203.78C280.933 203.24 281.983 202.97 283.003 202.97C284.083 202.97 284.713 202.94 284.893 202.88C285.073 202.88 285.313 202.67 285.613 202.25C285.973 201.89 286.153 201.35 286.153 200.63V198.47L286.063 185.33C286.063 182.03 286.513 179.21 287.413 176.87C288.313 174.47 289.213 172.88 290.113 172.1L291.463 171.02C291.043 170.66 290.533 170.15 289.933 169.49C289.333 168.83 288.523 167.36 287.503 165.08C286.543 162.8 286.063 160.34 286.063 157.7L286.153 142.4C286.153 140.42 285.823 139.28 285.163 138.98C284.923 138.92 284.413 138.89 283.633 138.89C282.913 138.89 282.253 138.83 281.653 138.71C281.113 138.59 280.483 138.35 279.763 137.99C279.103 137.57 278.623 136.91 278.323 136.01C278.023 135.05 277.873 133.82 277.873 132.32C277.873 130.82 278.023 129.62 278.323 128.72C278.623 127.76 279.103 127.1 279.763 126.74C280.843 126.2 282.373 125.93 284.353 125.93C288.553 125.93 292.033 127.4 294.793 130.34C297.613 133.28 299.023 137.06 299.023 141.68L299.113 160.04C299.113 162.98 301.003 164.45 304.783 164.45H305.143C307.243 164.45 308.563 165.38 309.103 167.24C309.343 168.2 309.463 169.55 309.463 171.29C309.463 172.97 309.193 174.35 308.653 175.43C308.113 176.45 307.573 177.05 307.033 177.23C306.493 177.35 305.833 177.41 305.053 177.41H304.513C300.913 177.41 299.113 178.85 299.113 181.73C298.993 183.17 298.933 185.81 298.933 189.65Z" fill="#E0921C"/>
</svg>
