<svg width="300" height="300" viewBox="0 0 300 300" fill="none" xmlns="http://www.w3.org/2000/svg">
<rect x="7.11682" y="133.355" width="285.766" height="108.382" rx="10" fill="#E0921C"/>
<path d="M71.3358 157.197C71.8158 156.297 72.6258 155.667 73.7658 155.307C74.9058 154.947 76.3458 154.767 78.0858 154.767C79.8258 154.767 81.2058 154.917 82.2258 155.217C83.2458 155.517 84.0258 155.877 84.5658 156.297C85.1058 156.717 85.5258 157.317 85.8258 158.097C86.1258 159.117 86.2758 160.677 86.2758 162.777V212.727C86.2758 214.107 86.2158 215.157 86.0958 215.877C86.0358 216.537 85.7658 217.317 85.2858 218.217C84.4458 219.837 82.1058 220.647 78.2658 220.647C74.0658 220.647 71.6058 219.537 70.8858 217.317C70.5258 216.297 70.3458 214.737 70.3458 212.637V194.367H46.4958V212.727C46.4958 214.107 46.4358 215.157 46.3158 215.877C46.2558 216.537 45.9858 217.317 45.5058 218.217C44.6658 219.837 42.3258 220.647 38.4858 220.647C34.2858 220.647 31.8258 219.537 31.1058 217.317C30.7458 216.297 30.5658 214.737 30.5658 212.637V162.687C30.5658 161.307 30.5958 160.287 30.6558 159.627C30.7758 158.907 31.0758 158.097 31.5558 157.197C32.3958 155.577 34.7358 154.767 38.5758 154.767C42.7758 154.767 45.2658 155.877 46.0458 158.097C46.3458 159.117 46.4958 160.677 46.4958 162.777V181.137H70.3458V162.687C70.3458 161.307 70.3758 160.287 70.4358 159.627C70.5558 158.907 70.8558 158.097 71.3358 157.197ZM109.426 204.807H137.146C138.526 204.807 139.546 204.867 140.206 204.987C140.926 205.047 141.736 205.317 142.636 205.797C144.256 206.637 145.066 208.977 145.066 212.817C145.066 217.017 143.956 219.477 141.736 220.197C140.716 220.557 139.156 220.737 137.056 220.737H101.416C97.2155 220.737 94.7555 219.597 94.0355 217.317C93.6755 216.357 93.4955 214.827 93.4955 212.727V162.687C93.4955 159.627 94.0655 157.557 95.2055 156.477C96.3455 155.337 98.5055 154.767 101.686 154.767H137.146C138.526 154.767 139.546 154.827 140.206 154.947C140.926 155.007 141.736 155.277 142.636 155.757C144.256 156.597 145.066 158.937 145.066 162.777C145.066 166.977 143.956 169.437 141.736 170.157C140.716 170.517 139.156 170.697 137.056 170.697H109.426V179.787H127.246C128.626 179.787 129.646 179.847 130.306 179.967C131.026 180.027 131.836 180.297 132.736 180.777C134.356 181.617 135.166 183.957 135.166 187.797C135.166 191.997 134.026 194.457 131.746 195.177C130.726 195.537 129.166 195.717 127.066 195.717H109.426V204.807ZM188.958 159.447L213.258 209.667C214.278 211.707 214.788 213.237 214.788 214.257C214.788 216.417 213.048 218.367 209.568 220.107C207.528 221.127 205.908 221.637 204.708 221.637C203.568 221.637 202.608 221.367 201.828 220.827C201.108 220.287 200.568 219.717 200.208 219.117C199.908 218.517 199.458 217.617 198.858 216.417L194.178 206.697H169.248L164.568 216.417C163.968 217.617 163.488 218.487 163.128 219.027C162.828 219.567 162.288 220.137 161.508 220.737C160.788 221.277 159.828 221.547 158.628 221.547C157.488 221.547 155.898 221.037 153.858 220.017C150.378 218.337 148.638 216.417 148.638 214.257C148.638 213.237 149.148 211.707 150.168 209.667L174.468 159.357C175.128 157.977 176.118 156.867 177.438 156.027C178.818 155.187 180.258 154.767 181.758 154.767C184.998 154.767 187.398 156.327 188.958 159.447ZM181.668 181.047L175.728 193.377H187.698L181.668 181.047ZM268.396 168.087C269.956 171.267 270.736 174.807 270.736 178.707C270.736 182.607 269.956 186.147 268.396 189.327C266.836 192.447 264.826 194.937 262.366 196.797C257.386 200.637 252.226 202.557 246.886 202.557H235.636V212.727C235.636 214.107 235.576 215.157 235.456 215.877C235.396 216.537 235.126 217.317 234.646 218.217C233.806 219.837 231.466 220.647 227.626 220.647C223.426 220.647 220.966 219.537 220.246 217.317C219.886 216.297 219.706 214.737 219.706 212.637V162.687C219.706 161.307 219.736 160.287 219.796 159.627C219.916 158.907 220.216 158.097 220.696 157.197C221.536 155.577 223.876 154.767 227.716 154.767H246.976C252.256 154.767 257.386 156.687 262.366 160.527C264.826 162.387 266.836 164.907 268.396 168.087ZM246.976 186.627C248.776 186.627 250.546 185.967 252.286 184.647C254.026 183.327 254.896 181.347 254.896 178.707C254.896 176.067 254.026 174.087 252.286 172.767C250.546 171.387 248.746 170.697 246.886 170.697H235.636V186.627H246.976Z" fill="white"/>
<path d="M198.473 115.934C198.473 142.69 176.784 131.506 150.029 131.506C123.274 131.506 101.584 142.69 101.584 115.934C101.584 89.1793 123.274 67.49 150.029 67.49C176.784 67.49 198.473 89.1793 198.473 115.934Z" fill="#E0921C"/>
<path d="M143.627 58.2625C139.786 58.2625 137.225 60.9472 137.225 64.6545V96.6047C137.225 100.14 134.359 103.006 130.824 103.006V103.006C127.288 103.006 124.422 100.14 124.422 96.6047V82.6625C124.422 77.057 118.926 73.5741 114.544 77.0704C107.067 83.0374 97.778 93.9955 95.9397 112.349C95.5557 116.183 92.6344 119.577 90.0458 122.431C89.003 123.581 88.0098 125.1 87.27 127.103C85.7385 131.247 89.5945 134.966 94.0128 134.966H205.675C210.235 134.966 214.126 131.017 212.405 126.795C211.674 125.004 210.773 123.614 209.842 122.538C207.347 119.653 204.501 116.23 204.126 112.434C202.308 94.0292 193.002 83.0465 185.513 77.0704C181.132 73.5741 175.635 77.057 175.635 82.6625V96.6047C175.635 100.14 172.769 103.006 169.233 103.006V103.006C165.698 103.006 162.832 100.14 162.832 96.6047V64.6545C162.832 60.9472 160.399 58.2625 156.43 58.2625H143.627Z" fill="#FFB800"/>
<rect x="11.4353" y="138.18" width="13.3585" height="13.3585" rx="6.67926" fill="white"/>
<rect x="11.4353" y="138.18" width="13.3585" height="13.3585" rx="6.67926" fill="white"/>
<rect x="11.4353" y="224.268" width="13.3585" height="13.3585" rx="6.67926" fill="white"/>
<rect x="11.4353" y="224.268" width="13.3585" height="13.3585" rx="6.67926" fill="white"/>
<rect x="275.206" y="224.268" width="13.3585" height="13.3585" rx="6.67926" fill="white"/>
<rect x="275.206" y="224.268" width="13.3585" height="13.3585" rx="6.67926" fill="white"/>
<rect x="275.206" y="138.18" width="13.3585" height="13.3585" rx="6.67926" fill="white"/>
<rect x="275.206" y="138.18" width="13.3585" height="13.3585" rx="6.67926" fill="white"/>
</svg>
