<svg width="400" height="400" viewBox="0 0 400 400" fill="none" xmlns="http://www.w3.org/2000/svg">
<path d="M308.554 130.515C308.554 190.599 259.846 165.484 199.761 165.484C139.677 165.484 90.969 190.599 90.969 130.515C90.969 70.4303 139.677 21.7223 199.761 21.7223C259.846 21.7223 308.554 70.4303 308.554 130.515Z" fill="#E0921C"/>
<path d="M256.748 318.311C256.748 329.026 255.291 339.636 252.459 349.536C249.628 359.435 245.478 368.43 240.247 376.007C235.015 383.583 228.804 389.594 221.969 393.694C215.134 397.795 207.807 399.905 200.409 399.905C193.01 399.905 185.684 397.795 178.849 393.694C172.014 389.594 165.803 383.583 160.571 376.007C155.34 368.43 151.19 359.435 148.359 349.536C145.527 339.636 144.07 329.026 144.07 318.311L200.409 318.311H256.748Z" fill="#494949"/>
<path fill-rule="evenodd" clip-rule="evenodd" d="M157.299 370.796C158.345 368.998 159.447 367.259 160.605 365.585C171.192 350.283 185.552 341.687 200.524 341.687C215.497 341.687 229.857 350.283 240.444 365.585C241.602 367.259 242.704 368.998 243.75 370.796C242.704 372.594 241.602 374.333 240.444 376.007C229.857 391.309 215.497 399.905 200.525 399.905C185.552 399.905 171.192 391.309 160.605 376.007C159.447 374.333 158.345 372.594 157.299 370.796Z" fill="#E96666"/>
<path d="M199.761 272.981C199.761 280.975 198.069 288.89 194.783 296.275C191.496 303.661 186.678 310.371 180.605 316.024C174.531 321.676 167.321 326.16 159.386 329.219C151.45 332.278 142.945 333.853 134.356 333.853C125.767 333.853 117.262 332.278 109.327 329.219C101.392 326.16 94.1815 321.676 88.1081 316.024C82.0347 310.371 77.217 303.661 73.9301 296.275C70.6432 288.89 68.9514 280.975 68.9514 272.981" stroke="black" stroke-width="32" stroke-linecap="round"/>
<path d="M331.866 272.981C331.866 280.975 330.158 288.89 326.838 296.275C323.519 303.661 318.653 310.371 312.52 316.024C306.386 321.676 299.105 326.16 291.091 329.219C283.077 332.278 274.488 333.853 265.814 333.853C257.14 333.853 248.55 332.278 240.537 329.219C232.523 326.16 225.241 321.676 219.108 316.024C212.974 310.371 208.109 303.661 204.789 296.275C201.47 288.89 199.761 280.975 199.761 272.981" stroke="black" stroke-width="32" stroke-linecap="round"/>
<circle cx="133.709" cy="195.272" r="31.0835" fill="black"/>
<circle cx="265.814" cy="195.272" r="31.0835" fill="black"/>
<path d="M185.385 1C176.759 1 171.009 7.02891 171.009 15.3545V93.4818C171.009 97.9001 167.427 101.482 163.009 101.482H150.257C145.838 101.482 142.257 97.9001 142.257 93.4818V41.3251C142.257 35.7197 136.744 32.1112 131.935 34.9907C114.338 45.5269 80.1783 73.2562 77.7061 130.705C77.5405 134.554 74.7719 137.941 71.4486 139.89C65.9626 143.108 58.4794 150.187 56.498 165.269C55.9224 169.649 59.5817 173.255 64 173.255H335.154C339.713 173.255 343.421 169.428 342.645 164.935C340.113 150.267 333.087 143.26 327.923 140.011C324.695 137.98 321.982 134.601 321.82 130.79C319.378 73.2835 285.193 45.5321 267.587 34.9907C262.778 32.1112 257.266 35.7197 257.266 41.3251V93.4818C257.266 97.9001 253.684 101.482 249.266 101.482H236.514C232.095 101.482 228.514 97.9001 228.514 93.4818V15.3545C228.514 7.02891 223.051 1 214.137 1H185.385Z" fill="#FFB800"/>
</svg>
