<svg width="318" height="318" viewBox="0 0 318 318" fill="none" xmlns="http://www.w3.org/2000/svg">
<path fill-rule="evenodd" clip-rule="evenodd" d="M52.5873 259.985C69.063 254.909 87.9294 246.717 107.673 235.993L112.757 233.243L116.702 234.132C124.758 235.91 132.009 237.049 141.649 238.049C145.538 238.438 149.039 238.549 159.012 238.549C171.763 238.549 174.764 238.382 183.598 237.299C225.658 231.993 260.94 213.852 279.553 187.904C285.915 179.07 289.805 170.013 291.694 159.846C292.416 156.012 292.722 146.539 292.249 142.649C289.832 122.591 278.248 104.312 258.607 89.6155C236.937 73.3914 208.768 63.5014 175.681 60.4733C171.291 60.0566 154.178 59.6954 150.539 59.9454C128.314 61.3623 112.312 64.5015 95.3936 70.7522C59.5007 84.0315 34.8035 107.145 27.9138 133.954C22.6076 154.706 28.2194 175.847 43.8878 194.1C50.2497 201.489 59.5563 209.323 68.6684 214.907L70.8353 216.241L70.0852 217.547C69.5643 218.461 68.7375 219.764 67.7966 221.179C66.0778 223.763 63.9783 226.72 62.6677 228.353C62.5828 228.459 62.4976 228.565 62.4123 228.67C57.6822 234.517 52.3193 240.097 45.1191 246.56C42.4923 248.918 39.621 251.393 36.4466 254.041C35.2491 255.04 34.0084 256.064 32.7214 257.116C32.7182 257.118 32.715 257.121 32.7117 257.123C32.6959 257.136 32.6801 257.149 32.6643 257.162C31.516 258.105 30.5099 258.945 29.6493 259.682C29.5892 259.733 29.5299 259.784 29.4712 259.835C27.4224 261.595 26.2395 262.736 25.9691 263.218C25.3857 264.246 25.3857 264.274 25.9136 264.663C26.3338 264.978 27.5727 265.107 29.2101 265.058C29.2239 265.057 29.2377 265.057 29.2516 265.057C30.6371 265.013 32.3031 264.843 33.9978 264.552C35.3281 264.322 36.6842 264.062 38.0651 263.775C38.0725 263.773 38.0799 263.771 38.0873 263.77C38.8813 263.604 39.6834 263.429 40.4935 263.245C44.3532 262.367 48.3928 261.277 52.5873 259.985ZM17.0156 276.739C17.0146 276.738 17.0136 276.737 17.0126 276.737C17.0106 276.735 17.0083 276.734 17.0057 276.732C16.9359 276.68 16.6324 276.457 16.2999 276.188C15.9552 275.909 15.2071 275.285 14.3991 274.375C12.3277 272.041 10.3571 268.337 10.5353 263.615C10.659 260.337 11.8412 257.901 12.1031 257.361C12.1116 257.344 12.1191 257.328 12.1256 257.315C12.4401 256.662 12.7988 256.033 12.9037 255.85C12.9121 255.835 12.9188 255.823 12.9238 255.814C14.0259 253.873 15.4115 252.447 15.7969 252.051C15.8116 252.036 15.8249 252.022 15.8367 252.01C16.4934 251.332 17.212 250.658 17.8928 250.042C19.2744 248.794 21.0623 247.279 23.1484 245.567L23.162 245.556L23.1756 245.545C36.3036 234.822 43.9013 227.528 49.9727 220.187C43.4589 215.165 37.346 209.492 32.5201 203.886L32.5132 203.878L32.5063 203.87C14.1046 182.434 6.70025 156.368 13.3813 130.238L13.3836 130.229L13.3859 130.22C21.935 96.9546 51.6061 70.9586 90.1889 56.6842L90.1952 56.6818C108.743 49.8291 126.217 46.4674 149.555 44.9777C152.214 44.8002 158.118 44.8569 163.144 44.9627C168.299 45.0711 174.217 45.2693 177.07 45.5378C212.276 48.7631 243.249 59.3799 267.593 77.6053C289.763 94.1938 304.127 115.877 307.14 140.841C307.14 140.843 307.14 140.846 307.141 140.848C307.521 143.99 307.524 148.28 307.412 151.752C307.3 155.217 307.021 159.497 306.437 162.606C304.131 175.006 299.336 186.095 291.742 196.648C269.966 227.003 230.247 246.533 185.476 252.181L185.45 252.184L185.424 252.187C175.806 253.367 172.164 253.549 159.012 253.549C149.036 253.549 144.867 253.446 140.156 252.974L140.129 252.972L140.101 252.969C130.571 251.98 123.074 250.839 114.962 249.104L114.832 249.174C114.828 249.176 114.824 249.179 114.82 249.181C86.4142 264.609 58.8507 275.472 36.5567 279.332L36.546 279.334L36.5353 279.336C34.0328 279.765 31.4215 280.031 29.0657 280.064C27.9174 280.081 26.4913 280.048 25.0073 279.851C24.9858 279.848 24.9599 279.845 24.9299 279.841C24.136 279.74 20.4503 279.27 17.0156 276.739Z" fill="#FFB800"/>
</svg>
